{
    "streams": [
        {
            "index": 0,
            "codec_name": "h264",
            "codec_long_name": "H.264 / AVC / MPEG-4 AVC / MPEG-4 part 10",
            "profile": "High 4:2:2 Intra",
            "codec_type": "video",
            "codec_tag_string": "[0][0][0][0]",
            "codec_tag": "0x0000",
            "width": 1920,
            "height": 1080,
            "coded_width": 1920,
            "coded_height": 1080,
            "closed_captions": 0,
            "film_grain": 0,
            "has_b_frames": 0,
            "sample_aspect_ratio": "1:1",
            "display_aspect_ratio": "16:9",
            "pix_fmt": "yuv422p10le",
            "level": 41,
            "color_range": "pc",
            "color_space": "bt709",
            "color_transfer": "bt709",
            "color_primaries": "bt709",
            "chroma_location": "left",
            "field_order": "tt",
            "refs": 1,
            "is_avc": "false",
            "nal_length_size": "0",
            "r_frame_rate": "25/1",
            "avg_frame_rate": "25/1",
            "time_base": "1/25",
            "start_pts": 0,
            "start_time": "0.000000",
            "duration_ts": 1738,
            "duration": "69.520000",
            "bits_per_raw_sample": "10",
            "extradata_size": 97,
            "disposition": {
                "default": 0,
                "dub": 0,
                "original": 0,
                "comment": 0,
                "lyrics": 0,
                "karaoke": 0,
                "forced": 0,
                "hearing_impaired": 0,
                "visual_impaired": 0,
                "clean_effects": 0,
                "attached_pic": 0,
                "timed_thumbnails": 0,
                "non_diegetic": 0,
                "captions": 0,
                "descriptions": 0,
                "metadata": 0,
                "dependent": 0,
                "still_image": 0,
                "multilayer": 0
            },
            "tags": {
                "file_package_umid": "0x060A2B340101010501010D231300F1EE808AABCBBA30101FA83600D0281F79B5"
            }
        },
        {
            "index": 1,
            "codec_name": "pcm_s24le",
            "codec_long_name": "PCM signed 24-bit little-endian",
            "codec_type": "audio",
            "codec_tag_string": "[0][0][0][0]",
            "codec_tag": "0x0000",
            "sample_fmt": "s32",
            "sample_rate": "48000",
            "channels": 8,
            "bits_per_sample": 24,
            "initial_padding": 0,
            "r_frame_rate": "0/0",
            "avg_frame_rate": "0/0",
            "time_base": "1/48000",
            "start_pts": 0,
            "start_time": "0.000000",
            "duration_ts": 3336960,
            "duration": "69.520000",
            "bit_rate": "9216000",
            "bits_per_raw_sample": "24",
            "disposition": {
                "default": 0,
                "dub": 0,
                "original": 0,
                "comment": 0,
                "lyrics": 0,
                "karaoke": 0,
                "forced": 0,
                "hearing_impaired": 0,
                "visual_impaired": 0,
                "clean_effects": 0,
                "attached_pic": 0,
                "timed_thumbnails": 0,
                "non_diegetic": 0,
                "captions": 0,
                "descriptions": 0,
                "metadata": 0,
                "dependent": 0,
                "still_image": 0,
                "multilayer": 0
            },
            "tags": {
                "file_package_umid": "0x060A2B340101010501010D231300F1EE808AABCBBA30101FA83600D0281F79B5"
            }
        },
        {
            "index": 2,
            "codec_type": "data",
            "codec_tag_string": "[0][0][0][0]",
            "codec_tag": "0x0000",
            "r_frame_rate": "0/0",
            "avg_frame_rate": "0/0",
            "time_base": "1/25",
            "start_pts": 0,
            "start_time": "0.000000",
            "duration_ts": 1738,
            "duration": "69.520000",
            "disposition": {
                "default": 0,
                "dub": 0,
                "original": 0,
                "comment": 0,
                "lyrics": 0,
                "karaoke": 0,
                "forced": 0,
                "hearing_impaired": 0,
                "visual_impaired": 0,
                "clean_effects": 0,
                "attached_pic": 0,
                "timed_thumbnails": 0,
                "non_diegetic": 0,
                "captions": 0,
                "descriptions": 0,
                "metadata": 0,
                "dependent": 0,
                "still_image": 0,
                "multilayer": 0
            },
            "tags": {
                "file_package_umid": "0x060A2B340101010501010D231300F1EE808AABCBBA30101FA83600D0281F79B5",
                "data_type": "vbi_vanc_smpte_436M"
            }
        }
    ],
    "format": {
        "filename": "MXFInputfiles/TESTSCHED1405.mxf",
        "nb_streams": 3,
        "nb_programs": 0,
        "nb_stream_groups": 0,
        "format_name": "mxf",
        "format_long_name": "MXF (Material eXchange Format)",
        "start_time": "0.000000",
        "duration": "69.520000",
        "size": "1070678907",
        "bit_rate": "123208159",
        "probe_score": 100,
        "tags": {
            "operational_pattern_ul": "060e2b34.04010101.0d010201.01010900",
            "uid": "2a86abcb-ba30-101f-b644-00d0281f79b5",
            "generation_uid": "3e86abcb-ba30-101f-bbde-00d0281f79b5",
            "company_name": "Omneon Inc.",
            "product_name": "Omneon Media Subsystem",
            "modification_date": "2025-05-14T11:58:48.752000Z",
            "product_version": "9.8.0.0.release",
            "product_version_num": "9.8.0.0.1",
            "application_platform": "Omneon Media Api (mqx)    ",
            "product_uid": "00000000-0000-1000-8000-050e0b010602",
            "material_package_umid": "0x060A2B340101010501010D231300A430C289ABCBBA30101FA86300D0281F79B5",
            "timecode": "11:58:59:05"
        }
    }
}
